<svg id="Layer_5" enable-background="new 0 0 64 64" height="512" viewBox="0 0 64 64" width="512" xmlns="http://www.w3.org/2000/svg"><path d="m50 13 10-5-10-5v2h-28v6h28z"/><path d="m35 53v-2l-10 5 10 5v-2h28v-6z"/><path d="m26.152 24h-10.304c-.474 2.326-.772 5.029-.829 8h11.963c-.057-2.971-.356-5.674-.83-8zm-5.152 6h-2v-2h2zm4 0h-2v-2h2z"/><path d="m13.822 24h-8.387c-1.381 2.378-2.224 5.097-2.385 8h9.96c.055-2.729.328-5.475.812-8z"/><path d="m25.674 22c-1.184-4.363-2.984-7-4.674-7s-3.491 2.637-4.674 7z"/><path d="m17.004 15.462c-4.126.94-7.708 3.299-10.22 6.538h7.48c.662-2.643 1.58-4.93 2.74-6.538z"/><path d="m15.848 42h10.304c.474-2.326.772-5.029.829-8h-11.962c.056 2.971.355 5.674.829 8zm5.152-6h2v2h-2zm-4 0h2v2h-2z"/><path d="m28.178 42h4.822v-8h-4.011c-.054 2.729-.327 5.475-.811 8z"/><path d="m34.114 20.686c-2.48-2.644-5.653-4.457-9.132-5.243 1.167 1.609 2.089 3.904 2.754 6.557h5.448c.186-.521.51-.97.93-1.314z"/><path d="m45 22h6v4h-6z"/><path d="m33 24h-4.822c.484 2.525.757 5.271.811 8h4.011z"/><path d="m53 22v6h-10v-6h-7c-.551 0-1 .449-1 1v20c0 .552.449 1 1 1h24c.551 0 1-.448 1-1v-20c0-.551-.449-1-1-1zm-2 20h-2v-2h2zm4 0h-2v-2h2zm4 0h-2v-2h2zm0-4h-10v-2h10z"/><path d="m16.326 44c1.184 4.363 2.984 7 4.674 7s3.491-2.637 4.674-7z"/><path d="m13.011 34h-9.96c.161 2.903 1.004 5.622 2.385 8h8.386c-.484-2.525-.757-5.271-.811-8z"/><path d="m6.784 44c2.512 3.239 6.094 5.597 10.22 6.537-1.16-1.608-2.078-3.895-2.74-6.537z"/><path d="m33.184 44h-5.448c-.665 2.654-1.587 4.948-2.754 6.557 3.479-.786 6.653-2.599 9.132-5.243-.42-.343-.744-.793-.93-1.314z"/></svg>